<?xml version="1.0" encoding="UTF-8"?>
<svg id="Layer_2" data-name="Layer 2" xmlns="http://www.w3.org/2000/svg" viewBox="0 0 738.14 283.11">
  <defs>
    <style>
      .cls-1 {
        letter-spacing: -.05em;
      }

      .cls-2 {
        letter-spacing: -.02em;
      }

      .cls-3 {
        letter-spacing: 0em;
      }

      .cls-4, .cls-5 {
        fill: #edf4f4;
      }

      .cls-5 {
        font-family: BeVietnamPro-ExtraLight, 'Be Vietnam Pro';
        font-size: 133.44px;
        font-weight: 200;
      }

      .cls-6 {
        letter-spacing: -.04em;
      }

      .cls-7 {
        letter-spacing: -.03em;
      }

      .cls-8 {
        letter-spacing: -.14em;
      }

      .cls-9 {
        letter-spacing: -.02em;
      }

      .cls-10 {
        letter-spacing: -.02em;
      }

      .cls-11 {
        letter-spacing: -.02em;
      }
    </style>
  </defs>
  <g id="Layer_1-2" data-name="Layer 1">
    <g>
      <g>
        <path class="cls-4" d="M55.42,118.64c-8.02,0-14.86-.94-20.53-2.81-5.67-1.87-10.36-4.27-14.05-7.18-3.7-2.91-6.63-6.03-8.82-9.37-2.19-3.33-3.8-6.45-4.84-9.37-.67-1.87-1.25-3.92-1.75-6.14-.44-1.98,1.08-3.85,3.11-3.85h24.12c1.32,0,2.52.82,2.98,2.06.73,2.01,1.63,3.74,2.69,5.19,1.4,1.93,3.56,3.62,6.48,5.07,2.91,1.46,6.87,2.19,11.86,2.19,6.14,0,10.43-1.17,12.88-3.51,2.44-2.34,3.67-4.86,3.67-7.57,0-2.5-.91-4.5-2.73-6.01-1.82-1.51-4.97-2.63-9.44-3.36l-15.45-2.5c-6.66-1.14-12.96-2.97-18.89-5.46-5.93-2.5-10.75-6.09-14.44-10.77-3.69-4.68-5.54-10.82-5.54-18.42s1.85-13.68,5.54-19.2c3.69-5.52,8.98-9.83,15.84-12.96C34.97,1.56,43.13,0,52.61,0c7.39,0,13.68.86,18.89,2.58,5.2,1.72,9.52,3.96,12.96,6.71,3.43,2.76,6.19,5.65,8.27,8.66,2.08,3.02,3.64,5.91,4.68,8.66l1.91,5.08c.76,2.04-.74,4.21-2.92,4.21h-23.76c-1.28,0-2.44-.77-2.93-1.95-.63-1.53-1.38-2.83-2.27-3.9-1.25-1.51-3.1-2.86-5.54-4.06-2.45-1.2-5.75-1.8-9.91-1.8s-7.1.57-9.44,1.72c-2.34,1.15-4.01,2.55-4.99,4.21-.99,1.67-1.48,3.33-1.48,4.99,0,3.02,1.43,5.23,4.29,6.63,2.86,1.4,6.37,2.47,10.54,3.2l16.23,2.65c6.45,1.04,12.41,2.89,17.87,5.54,5.46,2.65,9.86,6.3,13.19,10.93,3.33,4.63,4.99,10.43,4.99,17.41s-1.87,13.58-5.62,19.2-9.16,10.02-16.23,13.19c-7.08,3.18-15.72,4.76-25.91,4.76Z"/>
        <path class="cls-4" d="M142.49,113.9V30.65c0-1.76-1.42-3.18-3.18-3.18h-28.61c-1.76,0-3.18-1.42-3.18-3.18V4.74c0-1.76,1.42-3.18,3.18-3.18h93.54c1.76,0,3.18,1.42,3.18,3.18v19.55c0,1.76-1.42,3.18-3.18,3.18h-28.61c-1.76,0-3.18,1.42-3.18,3.18v83.24c0,1.76-1.42,3.18-3.18,3.18h-23.61c-1.76,0-3.18-1.42-3.18-3.18Z"/>
        <path class="cls-4" d="M216.73,113.9V4.74c0-1.76,1.42-3.18,3.18-3.18h77.31c1.76,0,3.18,1.42,3.18,3.18v19.55c0,1.76-1.42,3.18-3.18,3.18h-47.34c-1.76,0-3.18,1.42-3.18,3.18v12.37c0,1.76,1.42,3.18,3.18,3.18h40.31c1.76,0,3.18,1.42,3.18,3.18v18.3c0,1.76-1.42,3.18-3.18,3.18h-40.31c-1.76,0-3.18,1.42-3.18,3.18v13.93c0,1.76,1.42,3.18,3.18,3.18h48.12c1.76,0,3.18,1.42,3.18,3.18v19.55c0,1.76-1.42,3.18-3.18,3.18h-78.09c-1.76,0-3.18-1.42-3.18-3.18Z"/>
        <path class="cls-4" d="M317.16,113.9V4.74c0-1.76,1.42-3.18,3.18-3.18h23.61c1.76,0,3.18,1.42,3.18,3.18v83.24c0,1.76,1.42,3.18,3.18,3.18h48.12c1.76,0,3.18,1.42,3.18,3.18v19.55c0,1.76-1.42,3.18-3.18,3.18h-78.09c-1.76,0-3.18-1.42-3.18-3.18Z"/>
        <path class="cls-4" d="M412.32,113.9V4.74c0-1.76,1.42-3.18,3.18-3.18h23.61c1.76,0,3.18,1.42,3.18,3.18v83.24c0,1.76,1.42,3.18,3.18,3.18h48.12c1.76,0,3.18,1.42,3.18,3.18v19.55c0,1.76-1.42,3.18-3.18,3.18h-78.09c-1.76,0-3.18-1.42-3.18-3.18Z"/>
        <path class="cls-4" d="M630.14,113.9V4.74c0-1.76,1.42-3.18,3.18-3.18h47.71c8.64,0,16.23,1.41,22.79,4.21,6.56,2.81,11.65,6.95,15.3,12.41,3.64,5.46,5.46,12.2,5.46,20.22s-1.8,14.44-5.39,19.9c-3.06,4.65-7.08,8.34-12.06,11.07-1.48.81-2.06,2.65-1.33,4.17l18.89,38.97c1.02,2.11-.51,4.57-2.86,4.57h-25.84c-1.24,0-2.36-.72-2.88-1.84l-17.8-38.16c-.52-1.12-1.65-1.84-2.88-1.84h-9.16c-1.76,0-3.18,1.42-3.18,3.18v35.48c0,1.76-1.42,3.18-3.18,3.18h-23.61c-1.76,0-3.18-1.42-3.18-3.18ZM680.56,27.32h-17.27c-1.76,0-3.18,1.42-3.18,3.18v17.68c0,1.76,1.42,3.18,3.18,3.18h17.27c4.16,0,7.54-1.04,10.15-3.12,2.6-2.08,3.9-5.05,3.9-8.9s-1.3-6.95-3.9-8.98c-2.6-2.03-5.99-3.04-10.15-3.04Z"/>
        <path class="cls-4" d="M620.89,114.06L584.02,3.13c-.31-.94-1.19-1.57-2.17-1.57h-37.12c-.99,0-1.86.63-2.17,1.57l-36.88,110.93c-.49,1.48.61,3.01,2.17,3.01h9.43c11.08,0,20.87-7.19,24.19-17.75.3-.95,1.19-1.6,2.19-1.6h39.25c1,0,1.89.65,2.19,1.6l5.08,16.15c.3.95,1.19,1.6,2.19,1.6h26.36c1.56,0,2.67-1.53,2.17-3.01ZM588.84,60.69c-13.62,0-24.69,11.08-24.69,24.7,0,.48-.39.87-.87.87s-.87-.39-.87-.87c0-13.62-11.08-24.7-24.7-24.7-.48,0-.87-.39-.87-.87s.39-.87.87-.87c13.62,0,24.7-11.08,24.7-24.69,0-.48.39-.87.87-.87s.87.39.87.87v.04c.02,13.6,11.09,24.66,24.69,24.66.48,0,.87.39.87.87s-.39.87-.87.87Z"/>
      </g>
      <text class="cls-5" transform="translate(0 248.68)"><tspan class="cls-6" x="0" y="0">E</tspan><tspan class="cls-10" x="73.93" y="0">D</tspan><tspan class="cls-11" x="166.39" y="0">U</tspan><tspan class="cls-1" x="257.53" y="0">C</tspan><tspan class="cls-8" x="351.84" y="0">A</tspan><tspan class="cls-7" x="425.4" y="0">T</tspan><tspan class="cls-2" x="506.58" y="0">I</tspan><tspan class="cls-9" x="535.14" y="0">O</tspan><tspan class="cls-3" x="641.79" y="0">N</tspan></text>
    </g>
  </g>
</svg>